# xmcd
#
# Track frame offsets: 
#        150
#        18771
#        39649
#        59132
#        78065
#        99492
#        119199
#        140452
#        162835
#        183011
#        203821
#
# Disc length: 2949 seconds
#
# Revision: 0
# Processed by: cddbd v1.5.2PL0 Copyright (c) Steve Scherf et al.
# Submitted via: ExactAudioCopy v1.3
#
DISCID=8f0b830b
DTITLE=มนต์แคน แก่นคูณ - ชุดที่7 ให้เขารักเธอ เหมือนเธอรักเขา
DYEAR=2016
DGENRE=Country
TTITLE0=คอยน้องที่ช่องเม็ก
TTITLE1=คำว่าฮักกัน มันเหี่ยถิ่มไส
TTITLE2=ให้เขารักเธอ เหมือนเธอรักเขา ให้เขารักเธอ เหมือนเธอรักเขา
TTITLE3=บ่พอเซาฮักเขาแล้วบ้อ
TTITLE4=สู้ช่วยกันเด้อ..แม่บักคิดฮอดสู้ช่วยกันเด้อ..แม่บักคิดฮอด
TTITLE5=บ่อยากเจอหน้าคู่กรณี
TTITLE6=โลกยังมีผู้ชายแบบอ้าย
TTITLE7=เบิดฮักอ้ายแล้วบ้อ
TTITLE8=คิดฮอดทุกคน
TTITLE9=มนต์เพลงมนต์แคน
TTITLE10=(BonusTrack) เขาขอไลน์ อ้ายขอลา
EXTD=
EXTT0=
EXTT1=
EXTT2=
EXTT3=
EXTT4=
EXTT5=
EXTT6=
EXTT7=
EXTT8=
EXTT9=
EXTT10=
PLAYORDER=
